<svg xmlns="http://www.w3.org/2000/svg" viewBox="0 0 400 400" width="400" height="400"><g fill="rgba(255,255,255,0.08)" stroke="#e94560" stroke-width="2.5" stroke-linecap="round" stroke-linejoin="round"><ellipse cx="130" cy="55" rx="26" ry="33"/><line x1="130" y1="88" x2="130" y2="105"/><line x1="95" y1="112" x2="165" y2="112"/><line x1="130" y1="112" x2="130" y2="195"/><line x1="95" y1="112" x2="80" y2="158"/><line x1="80" y1="158" x2="75" y2="205"/><line x1="165" y1="112" x2="180" y2="158"/><line x1="180" y1="158" x2="185" y2="205"/><line x1="130" y1="195" x2="120" y2="290"/><line x1="120" y1="290" x2="115" y2="380"/><line x1="130" y1="195" x2="140" y2="290"/><line x1="140" y1="290" x2="145" y2="380"/><ellipse cx="270" cy="55" rx="26" ry="33"/><line x1="270" y1="88" x2="270" y2="105"/><line x1="235" y1="112" x2="305" y2="112"/><line x1="270" y1="112" x2="270" y2="195"/><line x1="235" y1="112" x2="220" y2="158"/><line x1="220" y1="158" x2="215" y2="205"/><line x1="305" y1="112" x2="320" y2="158"/><line x1="320" y1="158" x2="325" y2="205"/><line x1="270" y1="195" x2="260" y2="290"/><line x1="260" y1="290" x2="255" y2="380"/><line x1="270" y1="195" x2="280" y2="290"/><line x1="280" y1="290" x2="285" y2="380"/><path d="M185 140 Q230 130 270 140"/></g></svg>