<svg xmlns="http://www.w3.org/2000/svg" viewBox="0 0 400 400" width="400" height="400"><g fill="none" stroke="#e94560" stroke-width="2.5" stroke-linecap="round" stroke-linejoin="round"><ellipse cx="120" cy="55" rx="26" ry="33"/><line x1="120" y1="88" x2="120" y2="105"/><line x1="85" y1="112" x2="155" y2="112"/><line x1="120" y1="112" x2="120" y2="195"/><line x1="85" y1="112" x2="70" y2="158"/><line x1="70" y1="158" x2="65" y2="205"/><line x1="155" y1="112" x2="170" y2="158"/><line x1="170" y1="158" x2="175" y2="205"/><line x1="120" y1="195" x2="110" y2="290"/><line x1="110" y1="290" x2="105" y2="380"/><line x1="120" y1="195" x2="130" y2="290"/><line x1="130" y1="290" x2="135" y2="380"/><ellipse cx="280" cy="55" rx="28" ry="35"/><line x1="280" y1="90" x2="280" y2="108"/><line x1="240" y1="115" x2="320" y2="115"/><line x1="280" y1="115" x2="280" y2="200"/><line x1="240" y1="115" x2="220" y2="162"/><line x1="220" y1="162" x2="215" y2="210"/><line x1="320" y1="115" x2="340" y2="162"/><line x1="340" y1="162" x2="345" y2="210"/><line x1="280" y1="200" x2="270" y2="295"/><line x1="270" y1="295" x2="265" y2="385"/><line x1="280" y1="200" x2="290" y2="295"/><line x1="290" y1="295" x2="295" y2="385"/><path d="M175 165 Q230 155 220 165"/></g></svg>