<svg xmlns="http://www.w3.org/2000/svg" viewBox="0 0 300 400" width="300" height="400"><g fill="rgba(255,255,255,0.08)" stroke="#e94560" stroke-width="3" stroke-linecap="round" stroke-linejoin="round"><ellipse cx="150" cy="55" rx="28" ry="35"/><line x1="150" y1="90" x2="150" y2="110"/><line x1="105" y1="115" x2="195" y2="115"/><line x1="150" y1="115" x2="150" y2="200"/><line x1="105" y1="115" x2="85" y2="165"/><line x1="85" y1="165" x2="75" y2="215"/><line x1="195" y1="115" x2="215" y2="165"/><line x1="215" y1="165" x2="225" y2="215"/><line x1="125" y1="200" x2="175" y2="200"/><line x1="150" y1="200" x2="135" y2="300"/><line x1="135" y1="300" x2="130" y2="380"/><line x1="150" y1="200" x2="165" y2="300"/><line x1="165" y1="300" x2="170" y2="380"/><line x1="130" y1="380" x2="120" y2="385"/><line x1="170" y1="380" x2="180" y2="385"/></g></svg>